<svg id="Layer_1" data-name="Layer 1" xmlns="http://www.w3.org/2000/svg" viewBox="0 0 727.35852 474.00067"><title>Logo_ETER</title><path d="M698.54443,410.81927c-17.52105,0-28.731,12.5387-28.731,30.47486s11.21,30.47491,28.731,30.47491,28.81409-12.53869,28.81409-30.47491S716.06549,410.81927,698.54443,410.81927Zm0,51.23438c-10.795,0-17.02282-8.63593-17.02282-20.75952s6.22784-20.75946,17.02282-20.75946c10.878,0,17.10584,8.636,17.10584,20.75946S709.42242,462.05365,698.54443,462.05365Z"/><polygon points="458.689 317.692 458.689 307.977 415.426 307.977 415.426 366.933 459.104 366.933 459.104 357.218 426.885 357.218 426.885 341.026 455.534 341.026 455.534 332.141 426.885 332.141 426.885 317.692 458.689 317.692"/><polygon points="567.598 357.218 535.38 357.218 535.38 341.026 564.028 341.026 564.028 332.141 535.38 332.141 535.38 317.692 567.183 317.692 567.183 307.977 523.92 307.977 523.92 366.933 567.598 366.933 567.598 357.218"/><path d="M608.307,411.81573H585.22247v58.95679H608.307c18.1853,0,27.56854-11.95746,27.56854-29.47839S626.49225,411.81573,608.307,411.81573Zm-1.49476,49.2414h-10.2135v-39.526h10.2135c11.70844,0,17.35505,7.05823,17.35505,19.763S618.52063,461.05713,606.81219,461.05713Z"/><path d="M439.34119,435.14941c-7.97181-2.076-14.1164-3.40466-14.1164-8.55291,0-4.318,4.40088-6.89222,10.71173-6.89222,6.97535,0,11.87445,2.65723,12.87091,8.46991h11.37622c-1.6607-10.37976-9.96447-17.35492-24.16412-17.35492-12.70471,0-22.33722,6.22785-22.33722,16.44147,0,12.04047,10.712,14.53162,20.67652,17.18884,9.79852,2.7403,15.27887,3.65363,15.27887,9.79847,0,5.48053-4.64991,8.46991-11.54218,8.46991-8.55286,0-13.45221-3.48761-14.44849-10.878H411.85559c.99652,11.79138,9.96454,19.92907,26.07391,19.92907,13.45215,0,23.33362-6.47686,23.33362-18.26831C461.26312,440.71289,450.13593,437.9726,439.34119,435.14941Z"/><path d="M560.45111,449.26581c0,8.30377-4.8161,12.78784-12.70471,12.78784-7.97174,0-12.7049-4.48407-12.7049-12.78784V411.81573h-11.376v38.44654c0,14.94678,10.54571,21.50677,24.08087,21.50677,13.45221,0,24.08093-6.56,24.08093-21.50677V411.81573H560.45111Z"/><polygon points="465.686 421.614 484.286 421.614 484.286 470.773 495.662 470.773 495.662 421.614 514.263 421.614 514.263 411.816 465.686 411.816 465.686 421.614"/><rect x="647.25439" y="411.81573" width="11.37622" height="58.95679"/><polygon points="484.043 366.933 495.419 366.933 495.419 317.775 514.019 317.775 514.019 307.977 465.442 307.977 465.442 317.775 484.043 317.775 484.043 366.933"/><path d="M590.51685,343.26764h10.37951c7.80554,0,10.546,2.24206,11.21021,9.9646.74725,7.72241,1.99292,10.961,3.2384,13.70117H627.6347c-1.66076-2.82318-3.23846-6.72595-3.9859-13.86731-.91351-8.30377-3.23846-13.03693-11.044-14.1994,7.97155-1.57782,12.87091-6.64307,12.87091-14.69775,0-10.13062-8.13776-16.19239-20.42743-16.19239H579.14063v58.95685h11.37622Zm0-25.99078h12.0404c7.39038,0,11.37622,2.82318,11.37622,8.46978s-3.98584,8.46991-11.37622,8.46991h-12.0404Z"/><path d="M438.11816,3.08978c-14.1618,0-25.25854,10.88556-25.25854,25.57563,0,14.6903,11.09674,25.57562,25.25854,25.57562s25.25855-10.88532,25.25855-25.57562C463.37671,13.97534,452.28,3.08978,438.11816,3.08978Zm0,47.241c-11.8366,0-20.60839-9.19458-20.60839-21.6654,0-12.36512,8.77179-21.55951,20.60839-21.55951,11.94233,0,20.6084,9.19439,20.6084,21.55951C458.72656,41.13623,450.06049,50.33081,438.11816,50.33081Z"/><path d="M449.53223,34.3725c-.52851-2.53656-1.47962-4.12183-4.01618-4.86151v-.21137a6.43917,6.43917,0,0,0,4.65015-6.44684c0-5.07293-4.43872-7.92639-9.72284-7.92639h-13.105V41.98181h7.29223V32.15308h3.59333c2.64209,0,4.01593,1.16247,4.22735,3.59332.31708,2.64209.42279,5.81262,1.16248,6.23541h7.18671v-.5285C449.74341,40.9248,450.1662,37.75427,449.53223,34.3725ZM439.175,26.869h-4.54444V20.7392H439.175c2.64227,0,3.80475,1.05682,3.80475,3.06488C442.97974,25.812,441.71155,26.869,439.175,26.869Z"/><polygon points="332.416 60.39 332.413 0 0.002 167.96 0 167.96 0 206.013 0 254.772 0 255.081 261.458 255.081 0.003 387.188 0 387.188 0 424.931 0 473.999 0 474.001 45.293 474.001 45.293 473.999 332.151 473.999 332.151 424.931 45.293 424.931 45.293 423.385 332.197 279.728 332.197 219.338 332.151 219.361 332.151 206.013 45.293 206.013 45.293 204.157 332.416 60.39"/></svg>